<?xml version="1.0" encoding="UTF-8"?>
<svg id="_Слой_4" data-name="Слой 4" xmlns="http://www.w3.org/2000/svg" viewBox="0 0 1177.6 905.1">
  <defs>
    <style>
      .cls-1 {
        fill: #111;
        stroke-width: 0px;
      }
    </style>
  </defs>
  <path class="cls-1" d="m87.08,50.56l150,700h150L237.08,50.56H87.08Zm270,669.5h-90L117.08,80.06h90l150,640Z"/>
  <path class="cls-1" d="m458.34,50.15l-150,700h150S608.34,50.15,608.34,50.15h-150Z"/>
  <polygon class="cls-1" points="0 750.06 70.68 750.06 159.34 343.75 124 181.79 0 750.06"/>
  <polygon class="cls-1" points="93.2 750.06 165.48 750.06 206.74 560.98 170.6 395.35 93.2 750.06"/>
  <polygon class="cls-1" points="586.64 272.19 576.26 319.75 664.92 726.06 637.83 726.06 549.17 319.75 573.09 210.12 566.91 181.79 531.57 343.75 620.23 750.06 690.91 750.06 586.64 272.19"/>
  <polygon class="cls-1" points="520.31 395.35 508.77 448.26 569.39 726.06 542.3 726.06 495.22 510.33 484.17 560.98 525.43 750.06 597.72 750.06 520.31 395.35"/>
</svg>